<svg xmlns="http://www.w3.org/2000/svg" xmlns:v="https://svgstorm.com"
viewBox = "0 0 674 246"
width="674"
height="246">
<g fill="#FEFEFE" fill-opacity="1.00" stroke="None"><path d="
M 0.00 246.00 
L 674.00 246.00
L 674.00 0.00
L 0.00 0.00
L 0.00 246.00 Z"/>
</g>
<g fill="#D9DBEC" fill-opacity="1.00" stroke="None"><path d="
M 101.00 50.00 
C 101.08 49.51 101.00 49.00 101.00 49.00
C 101.91 38.96 117.75 46.19 125.00 44.00 C 144.67 44.00 164.33 44.00 184.00 44.00 C 191.24 45.61 207.40 40.55 209.00 47.00
C 208.76 47.31 209.00 48.00 209.00 48.00
C 208.72 49.28 209.76 51.50 208.00 52.00
C 206.65 55.48 206.48 59.27 206.00 63.00
C 205.99 63.50 206.00 64.00 206.00 64.00
C 209.01 57.67 216.20 39.31 202.00 43.00 C 190.67 43.00 179.33 43.00 168.00 43.00 C 146.33 41.68 121.98 45.64 102.00 41.00
C 101.28 43.73 98.14 47.39 101.00 50.00 Z"/>
</g>
<g fill="#FDEAC3" fill-opacity="1.00" stroke="None"><path d="
M 378.00 55.00 
C 378.79 47.64 383.02 41.25 392.00 44.00
C 389.56 41.82 384.93 43.81 382.00 42.00
C 378.63 45.46 377.73 50.19 378.00 55.00 Z"/>
</g>
<g fill="#D9DCED" fill-opacity="1.00" stroke="None"><path d="
M 215.00 63.00 
C 215.01 62.94 216.00 63.00 216.00 63.00
C 216.85 57.64 219.02 52.61 219.00 47.00
C 224.19 40.34 237.61 45.76 246.00 44.00 C 286.33 44.00 326.67 44.00 367.00 44.00
C 367.00 45.67 367.00 47.33 367.00 49.00
C 370.14 37.85 350.07 45.02 343.00 43.00 C 332.33 43.00 321.67 43.00 311.00 43.00 C 279.88 44.32 247.05 40.35 217.00 45.00
C 217.16 50.34 214.67 56.87 215.00 63.00 Z"/>
</g>
<g fill="#888BA6" fill-opacity="1.00" stroke="None"><path d="
M 101.00 49.00 
C 102.60 48.47 101.72 46.25 102.00 45.00
C 126.00 45.00 150.00 45.00 174.00 45.00 C 185.19 46.31 200.24 42.37 209.00 47.00
C 207.40 40.55 191.24 45.61 184.00 44.00 C 164.33 44.00 144.67 44.00 125.00 44.00 C 117.75 46.19 101.91 38.96 101.00 49.00 Z"/>
</g>
<g fill="#888BA6" fill-opacity="1.00" stroke="None"><path d="
M 219.00 47.00 
C 232.66 42.39 250.66 46.29 266.00 45.00 C 299.33 45.00 332.67 45.00 366.00 45.00
C 366.51 48.57 365.39 51.64 365.00 55.00
C 366.89 53.84 367.17 51.14 367.00 49.00
C 367.00 47.33 367.00 45.67 367.00 44.00
C 326.67 44.00 286.33 44.00 246.00 44.00 C 237.61 45.76 224.19 40.34 219.00 47.00 Z"/>
</g>
<g fill="#F3C58A" fill-opacity="1.00" stroke="None"><path d="
M 378.00 55.00 
C 378.00 58.18 377.17 61.15 376.00 64.00
C 376.05 67.09 375.68 70.73 374.00 73.00
C 374.00 74.00 374.00 75.00 374.00 76.00
C 367.87 91.89 390.04 84.31 399.00 86.00 C 419.47 90.08 451.02 76.07 463.00 97.00
C 469.21 113.84 449.44 125.77 434.00 122.00 C 415.33 122.00 396.67 122.00 378.00 122.00 C 356.76 117.32 362.65 145.28 358.00 158.00
C 364.01 147.96 360.24 131.06 368.03 123.03 C 396.81 121.20 427.55 126.69 455.00 120.00
C 457.50 119.67 461.02 118.01 461.00 115.00
C 474.36 98.18 455.83 79.30 437.00 85.00 C 416.00 85.00 395.00 85.00 374.00 85.00
C 375.14 79.79 374.31 73.42 377.00 69.00
C 381.18 61.32 377.11 43.75 390.00 45.00 C 424.52 46.82 461.72 39.58 493.00 53.00
C 486.04 46.78 475.20 46.81 467.00 44.00
C 442.00 44.00 417.00 44.00 392.00 44.00
C 383.02 41.25 378.79 47.64 378.00 55.00 Z"/>
</g>
<g fill="#FEF1D0" fill-opacity="1.00" stroke="None"><path d="
M 493.00 53.00 
C 493.43 53.17 494.00 53.00 494.00 53.00
C 516.20 61.00 523.43 87.59 519.00 109.00
C 518.68 119.43 512.06 128.13 508.00 137.00
C 523.53 120.40 523.07 94.30 517.90 73.10 C 507.58 56.15 489.13 42.56 467.00 44.00
C 475.20 46.81 486.04 46.78 493.00 53.00 Z"/>
</g>
<g fill="#2F3568" fill-opacity="1.00" stroke="None"><path d="
M 101.00 49.00 
C 101.00 49.00 101.08 49.51 101.00 50.00
C 98.87 61.42 95.73 72.57 94.00 84.00
C 112.00 84.00 130.00 84.00 148.00 84.00
C 148.43 87.23 146.30 89.73 147.00 93.00
C 146.88 95.05 146.50 97.70 145.00 99.00
C 141.76 118.21 138.33 137.39 133.00 156.00
C 132.92 156.49 133.00 157.00 133.00 157.00
C 129.07 163.21 120.82 168.46 114.00 165.00
C 111.56 165.08 108.60 164.65 107.00 163.00
C 100.17 161.88 96.10 154.18 91.00 151.00
C 85.73 157.36 78.88 162.22 73.00 168.00
C 67.56 171.97 63.48 177.98 58.00 182.00
C 58.66 183.36 59.27 184.66 60.00 186.00
C 62.37 188.26 66.06 190.17 67.00 193.00
C 73.66 197.85 80.81 202.60 89.00 204.00
C 94.66 206.27 101.78 205.44 107.00 208.00
C 129.78 208.33 153.45 205.64 169.75 188.75 C 183.63 171.78 189.39 150.28 192.00 129.00
C 193.33 124.11 192.56 117.88 196.00 114.00
C 196.40 106.75 198.11 99.84 200.00 93.00
C 200.16 92.55 200.00 92.00 200.00 92.00
C 198.35 88.59 199.12 81.69 202.00 79.00
C 203.95 77.16 202.56 73.36 204.00 71.00
C 204.10 68.29 204.44 64.96 206.00 63.00
C 206.48 59.27 206.65 55.48 208.00 52.00
C 208.28 50.72 207.24 48.50 209.00 48.00
C 209.00 48.00 208.76 47.31 209.00 47.00
C 200.24 42.37 185.19 46.31 174.00 45.00 C 150.00 45.00 126.00 45.00 102.00 45.00
C 101.72 46.25 102.60 48.47 101.00 49.00 Z"/>
</g>
<g fill="#2F3568" fill-opacity="1.00" stroke="None"><path d="
M 219.00 47.00 
C 219.02 52.61 216.85 57.64 216.00 63.00
C 215.47 67.36 215.03 72.40 213.00 76.00
C 213.00 77.00 213.00 78.00 213.00 79.00
C 213.52 81.23 211.46 82.73 212.00 85.00
C 227.33 85.00 242.67 85.00 258.00 85.00
C 257.48 87.19 259.14 90.62 257.00 92.00
C 250.62 127.87 242.00 163.05 236.00 199.00
C 236.00 200.67 236.00 202.33 236.00 204.00
C 253.35 202.68 273.20 206.64 289.00 202.00
C 290.18 197.14 290.07 191.29 292.00 187.00
C 296.54 160.86 302.61 135.14 307.00 109.00
C 307.78 105.71 308.57 102.41 309.00 99.00
C 308.83 96.86 309.11 94.16 311.00 93.00
C 309.42 81.01 323.62 85.94 331.00 85.00 C 340.33 85.00 349.67 85.00 359.00 85.00
C 360.81 74.92 363.56 65.14 365.00 55.00
C 365.39 51.64 366.51 48.57 366.00 45.00
C 332.67 45.00 299.33 45.00 266.00 45.00 C 250.66 46.29 232.66 42.39 219.00 47.00 Z"/>
</g>
<g fill="#F88C2A" fill-opacity="1.00" stroke="None"><path d="
M 377.00 69.00 
C 374.17 78.16 375.96 87.72 388.00 84.00 C 407.00 84.00 426.00 84.00 445.00 84.00 C 463.12 79.57 473.68 103.61 461.00 115.00
C 461.02 118.01 457.50 119.67 455.00 120.00
C 443.63 127.84 426.74 122.35 413.00 124.00 C 397.33 124.00 381.67 124.00 366.00 124.00
C 365.10 147.96 358.41 170.02 352.00 192.00
C 351.92 192.49 352.00 193.00 352.00 193.00
C 352.71 196.61 350.77 199.49 351.00 203.00
C 361.67 203.00 372.33 203.00 383.00 203.00 C 392.93 203.52 406.34 205.17 405.00 192.00
C 406.60 188.94 407.32 185.59 407.00 182.00
C 406.22 171.28 410.56 158.68 424.00 163.00 C 434.68 162.94 452.52 166.82 448.00 150.00 C 442.89 132.63 462.70 139.05 473.00 138.00 C 484.03 136.34 498.37 141.54 507.00 135.00
C 511.23 129.33 514.91 122.99 516.00 116.00
C 522.65 92.40 516.13 65.10 494.00 53.00
C 494.00 53.00 493.43 53.17 493.00 53.00
C 461.72 39.58 424.52 46.82 390.00 45.00 C 377.11 43.75 381.18 61.32 377.00 69.00 Z"/>
</g>
<g fill="#9DA1B6" fill-opacity="1.00" stroke="None"><path d="
M 208.00 52.00 
C 209.76 51.50 208.72 49.28 209.00 48.00
C 207.24 48.50 208.28 50.72 208.00 52.00 Z"/>
</g>
<g fill="#E9B875" fill-opacity="1.00" stroke="None"><path d="
M 516.00 116.00 
C 518.18 114.49 517.05 110.54 519.00 109.00
C 523.43 87.59 516.20 61.00 494.00 53.00
C 516.13 65.10 522.65 92.40 516.00 116.00 Z"/>
</g>
<g fill="#8F92A8" fill-opacity="1.00" stroke="None"><path d="
M 204.00 71.00 
C 205.54 69.37 205.60 66.30 206.00 64.00
C 206.00 64.00 205.99 63.50 206.00 63.00
C 204.44 64.96 204.10 68.29 204.00 71.00 Z"/>
</g>
<g fill="#989CB4" fill-opacity="1.00" stroke="None"><path d="
M 213.00 76.00 
C 215.03 72.40 215.47 67.36 216.00 63.00
C 216.00 63.00 215.01 62.94 215.00 63.00
C 215.07 67.54 212.93 71.49 213.00 76.00 Z"/>
</g>
<g fill="#FEF5D9" fill-opacity="1.00" stroke="None"><path d="
M 374.00 73.00 
C 375.68 70.73 376.05 67.09 376.00 64.00
C 373.19 65.89 374.16 69.95 374.00 73.00 Z"/>
</g>
<g fill="#DFA050" fill-opacity="1.00" stroke="None"><path d="
M 461.00 115.00 
C 473.68 103.61 463.12 79.57 445.00 84.00 C 426.00 84.00 407.00 84.00 388.00 84.00 C 375.96 87.72 374.17 78.16 377.00 69.00
C 374.31 73.42 375.14 79.79 374.00 85.00
C 395.00 85.00 416.00 85.00 437.00 85.00 C 455.83 79.30 474.36 98.18 461.00 115.00 Z"/>
</g>
<g fill="#D1D5E8" fill-opacity="1.00" stroke="None"><path d="
M 553.00 102.00 
C 554.76 93.95 549.31 80.78 556.03 76.03 C 564.63 77.27 576.14 73.35 582.92 78.08 C 582.44 87.22 584.28 97.69 582.00 106.00
C 573.00 106.00 564.00 106.00 555.00 106.00
C 554.50 106.00 554.00 106.00 554.00 106.00
C 562.66 107.82 574.15 107.36 583.22 106.22 C 584.87 96.71 583.82 86.13 583.74 76.26 C 574.70 73.41 563.83 75.71 554.08 75.08 C 549.97 81.72 552.00 94.29 553.00 102.00 Z"/>
</g>
<g fill="#FDF3D4" fill-opacity="1.00" stroke="None"><path d="
M 463.00 97.00 
C 451.02 76.07 419.47 90.08 399.00 86.00 C 390.04 84.31 367.87 91.89 374.00 76.00
C 362.93 90.85 386.83 86.73 396.00 87.00 C 418.13 90.17 446.91 78.78 463.00 97.00 Z"/>
</g>
<g fill="#898BA5" fill-opacity="1.00" stroke="None"><path d="
M 553.00 102.00 
C 553.28 103.25 552.40 105.47 554.00 106.00
C 554.00 106.00 554.50 106.00 555.00 106.00
C 552.72 96.83 554.63 86.59 554.00 77.00
C 563.33 77.00 572.67 77.00 582.00 77.00
C 582.00 86.67 582.00 96.33 582.00 106.00
C 584.28 97.69 582.44 87.22 582.92 78.08 C 576.14 73.35 564.63 77.27 556.03 76.03 C 549.31 80.78 554.76 93.95 553.00 102.00 Z"/>
</g>
<g fill="#303667" fill-opacity="1.00" stroke="None"><path d="
M 555.00 106.00 
C 564.00 106.00 573.00 106.00 582.00 106.00
C 582.00 96.33 582.00 86.67 582.00 77.00
C 572.67 77.00 563.33 77.00 554.00 77.00
C 554.63 86.59 552.72 96.83 555.00 106.00 Z"/>
</g>
<g fill="#4C526B" fill-opacity="1.00" stroke="None"><path d="
M 200.00 92.00 
C 200.11 91.00 199.53 89.27 201.00 89.00
C 200.38 85.40 202.62 82.58 202.00 79.00
C 199.12 81.69 198.35 88.59 200.00 92.00 Z"/>
</g>
<g fill="#A1A4BC" fill-opacity="1.00" stroke="None"><path d="
M 257.00 92.00 
C 259.14 90.62 257.48 87.19 258.00 85.00
C 242.67 85.00 227.33 85.00 212.00 85.00
C 211.46 82.73 213.52 81.23 213.00 79.00
C 211.35 80.60 210.92 83.56 211.00 86.00
C 226.33 86.00 241.67 86.00 257.00 86.00
C 257.00 88.00 257.00 90.00 257.00 92.00 Z"/>
</g>
<g fill="#A9ACC2" fill-opacity="1.00" stroke="None"><path d="
M 200.00 92.00 
C 200.00 92.00 200.16 92.55 200.00 93.00
C 201.76 92.50 200.72 90.28 201.00 89.00
C 199.53 89.27 200.11 91.00 200.00 92.00 Z"/>
</g>
<g fill="#8A8FA1" fill-opacity="1.00" stroke="None"><path d="
M 145.00 99.00 
C 146.50 97.70 146.88 95.05 147.00 93.00
C 145.11 94.16 144.83 96.86 145.00 99.00 Z"/>
</g>
<g fill="#6B7590" fill-opacity="1.00" stroke="None"><path d="
M 309.00 99.00 
C 310.98 98.53 308.89 95.40 311.00 95.00
C 311.01 94.50 310.99 93.50 311.00 93.00
C 309.11 94.16 308.83 96.86 309.00 99.00 Z"/>
</g>
<g fill="#A2A7BD" fill-opacity="1.00" stroke="None"><path d="
M 309.00 99.00 
C 308.57 102.41 307.78 105.71 307.00 109.00
C 309.72 105.26 310.17 99.68 311.00 95.00
C 308.89 95.40 310.98 98.53 309.00 99.00 Z"/>
</g>
<g fill="#F4D2A2" fill-opacity="1.00" stroke="None"><path d="
M 516.00 116.00 
C 514.91 122.99 511.23 129.33 507.00 135.00
C 502.11 143.39 488.51 137.00 480.00 139.00 C 469.67 139.00 459.33 139.00 449.00 139.00
C 446.79 147.20 455.10 166.40 441.00 164.00 C 431.62 165.82 417.17 160.24 411.00 167.00
C 411.09 166.80 412.00 167.00 412.00 167.00
C 412.00 167.00 411.75 166.26 412.00 166.00
C 421.42 163.69 432.82 165.65 443.00 165.00 C 455.61 165.53 447.88 147.84 450.00 140.00
C 451.67 140.00 453.33 140.00 455.00 140.00
C 464.33 140.00 473.67 140.00 483.00 140.00 C 490.99 138.41 502.22 143.42 508.00 137.00
C 512.06 128.13 518.68 119.43 519.00 109.00
C 517.05 110.54 518.18 114.49 516.00 116.00 Z"/>
</g>
<g fill="#FDF2D7" fill-opacity="1.00" stroke="None"><path d="
M 516.00 146.00 
C 516.00 148.67 516.00 151.33 516.00 154.00
C 518.33 164.34 516.33 176.83 517.00 188.00 C 515.09 197.06 517.42 212.72 529.78 206.78 C 539.91 205.47 551.55 205.50 561.78 206.78 C 575.43 207.06 568.25 189.78 570.00 181.00 C 567.25 172.14 575.61 156.38 566.00 153.00
C 569.08 143.05 565.87 131.10 567.00 120.00 C 571.33 103.21 552.42 110.94 543.00 110.00 C 530.20 106.72 520.05 112.94 524.00 127.00 C 525.02 135.70 518.23 150.99 531.00 152.00
C 527.99 154.28 522.83 152.37 519.00 153.00
C 519.63 150.20 520.60 145.27 516.00 146.00 Z"/>
</g>
<g fill="#C5CADD" fill-opacity="1.00" stroke="None"><path d="
M 608.00 109.00 
C 599.52 111.27 589.92 109.38 581.00 110.00 C 568.71 106.32 567.50 116.50 569.00 126.00 C 570.22 134.03 566.49 144.51 571.00 151.00 C 580.33 151.00 589.67 151.00 599.00 151.00 C 611.86 155.06 610.66 142.85 610.00 134.00 C 608.92 125.82 612.31 116.13 608.00 109.00 Z"/>
</g>
<g fill="#E7B376" fill-opacity="1.00" stroke="None"><path d="
M 526.00 150.00 
C 538.66 149.49 551.98 151.03 564.22 149.22 C 565.52 137.30 565.51 123.68 564.22 111.78 C 552.30 110.48 538.68 110.49 526.78 111.78 C 524.96 124.05 526.52 137.34 526.00 150.00 Z"/>
</g>
<g fill="#6C728D" fill-opacity="1.00" stroke="None"><path d="
M 608.00 149.00 
C 595.67 149.00 583.33 149.00 571.00 149.00
C 571.00 136.67 571.00 124.33 571.00 112.00
C 583.33 112.00 595.67 112.00 608.00 112.00
C 596.67 110.18 582.52 110.64 570.78 111.78 C 568.96 124.05 570.52 137.34 570.00 150.00
C 582.51 149.34 596.24 151.32 608.00 149.00 Z"/>
</g>
<g fill="#F68E2D" fill-opacity="1.00" stroke="None"><path d="
M 564.00 112.00 
C 552.46 113.12 539.22 109.73 528.75 113.75 C 524.72 124.26 528.13 137.45 527.00 149.00
C 539.33 149.00 551.67 149.00 564.00 149.00
C 564.00 136.67 564.00 124.33 564.00 112.00 Z"/>
</g>
<g fill="#2E3466" fill-opacity="1.00" stroke="None"><path d="
M 608.00 149.00 
C 608.00 136.67 608.00 124.33 608.00 112.00
C 595.67 112.00 583.33 112.00 571.00 112.00
C 571.00 124.33 571.00 136.67 571.00 149.00
C 583.33 149.00 595.67 149.00 608.00 149.00 Z"/>
</g>
<g fill="#8C91A5" fill-opacity="1.00" stroke="None"><path d="
M 192.00 129.00 
C 194.44 124.78 195.39 119.09 196.00 114.00
C 192.56 117.88 193.33 124.11 192.00 129.00 Z"/>
</g>
<g fill="#E29C4C" fill-opacity="1.00" stroke="None"><path d="
M 358.00 158.00 
C 358.02 158.50 357.98 159.50 358.00 160.00
C 356.53 170.78 353.82 181.27 352.00 192.00
C 358.41 170.02 365.10 147.96 366.00 124.00
C 381.67 124.00 397.33 124.00 413.00 124.00 C 426.74 122.35 443.63 127.84 455.00 120.00
C 427.55 126.69 396.81 121.20 368.03 123.03 C 360.24 131.06 364.01 147.96 358.00 158.00 Z"/>
</g>
<g fill="#E5A65C" fill-opacity="1.00" stroke="None"><path d="
M 407.00 182.00 
C 408.85 177.54 408.84 171.71 411.00 167.00
C 417.17 160.24 431.62 165.82 441.00 164.00 C 455.10 166.40 446.79 147.20 449.00 139.00
C 459.33 139.00 469.67 139.00 480.00 139.00 C 488.51 137.00 502.11 143.39 507.00 135.00
C 498.37 141.54 484.03 136.34 473.00 138.00 C 462.70 139.05 442.89 132.63 448.00 150.00 C 452.52 166.82 434.68 162.94 424.00 163.00 C 410.56 158.68 406.22 171.28 407.00 182.00 Z"/>
</g>
<g fill="#FDF7D9" fill-opacity="1.00" stroke="None"><path d="
M 412.00 166.00 
C 422.40 165.48 432.08 167.13 442.00 166.00 C 456.48 169.47 449.36 151.24 451.00 143.00
C 452.93 143.25 454.17 141.47 455.00 140.00
C 453.33 140.00 451.67 140.00 450.00 140.00
C 447.88 147.84 455.61 165.53 443.00 165.00 C 432.82 165.65 421.42 163.69 412.00 166.00 Z"/>
</g>
<g fill="#E1E4F0" fill-opacity="1.00" stroke="None"><path d="
M 516.00 154.00 
C 516.00 151.33 516.00 148.67 516.00 146.00
C 510.48 139.29 496.73 144.79 488.00 143.00 C 478.00 143.00 468.00 143.00 458.00 143.00 C 447.72 144.47 455.35 161.16 453.00 169.00 C 453.00 179.00 453.00 189.00 453.00 199.00 C 451.43 211.75 469.37 203.80 477.00 206.00 C 487.00 206.00 497.00 206.00 507.00 206.00 C 520.72 208.93 514.80 191.88 516.00 184.00 C 516.00 174.00 516.00 164.00 516.00 154.00 Z"/>
</g>
<g fill="#888CA4" fill-opacity="1.00" stroke="None"><path d="
M 455.00 204.00 
C 454.81 203.92 455.00 202.50 455.00 202.00
C 455.00 183.00 455.00 164.00 455.00 145.00
C 474.33 145.00 493.67 145.00 513.00 145.00
C 513.50 145.00 514.00 145.00 514.00 145.00
C 495.33 143.18 473.86 143.63 454.78 144.78 C 453.63 163.89 453.19 185.24 455.00 204.00 Z"/>
</g>
<g fill="#2E3467" fill-opacity="1.00" stroke="None"><path d="
M 455.00 202.00 
C 473.83 204.32 493.75 202.34 513.00 203.00
C 513.00 183.67 513.00 164.33 513.00 145.00
C 493.67 145.00 474.33 145.00 455.00 145.00
C 455.00 164.00 455.00 183.00 455.00 202.00 Z"/>
</g>
<g fill="#50526E" fill-opacity="1.00" stroke="None"><path d="
M 455.00 202.00 
C 455.00 202.50 454.81 203.92 455.00 204.00
C 465.00 204.00 475.00 204.00 485.00 204.00 C 494.19 202.71 507.23 206.61 514.00 202.00
C 514.00 183.00 514.00 164.00 514.00 145.00
C 514.00 145.00 513.50 145.00 513.00 145.00
C 513.00 164.33 513.00 183.67 513.00 203.00
C 493.75 202.34 473.83 204.32 455.00 202.00 Z"/>
</g>
<g fill="#9498AA" fill-opacity="1.00" stroke="None"><path d="
M 73.00 168.00 
C 78.88 162.22 85.73 157.36 91.00 151.00
C 84.71 156.14 78.17 161.45 73.00 168.00 Z"/>
</g>
<g fill="#F3D3A0" fill-opacity="1.00" stroke="None"><path d="
M 567.00 154.00 
C 557.33 154.00 547.67 154.00 538.00 154.00 C 529.74 154.36 514.91 150.47 519.00 164.00 C 519.00 173.67 519.00 183.33 519.00 193.00 C 514.87 206.13 526.36 206.15 536.00 205.00 C 545.66 204.99 555.33 205.01 564.99 204.99 C 573.52 202.25 566.92 187.57 569.00 180.00 C 567.82 171.63 571.45 160.71 567.00 154.00 Z"/>
</g>
<g fill="#DDA760" fill-opacity="1.00" stroke="None"><path d="
M 520.00 157.00 
C 535.17 154.68 551.42 156.65 567.00 156.00
C 566.48 171.33 568.04 187.29 566.22 202.22 C 551.40 203.38 534.79 203.80 520.00 202.00
C 529.09 206.63 544.48 202.69 556.00 204.00 C 573.39 209.08 566.94 189.31 568.00 179.00 C 567.62 168.12 572.46 149.59 555.00 155.00 C 543.64 156.28 529.81 152.40 520.00 157.00 Z"/>
</g>
<g fill="#9FA2B6" fill-opacity="1.00" stroke="None"><path d="
M 126.00 163.00 
C 128.76 161.58 130.27 158.35 133.00 157.00
C 133.00 157.00 132.92 156.49 133.00 156.00
C 130.35 157.76 127.89 160.38 126.00 163.00 Z"/>
</g>
<g fill="#F78D2B" fill-opacity="1.00" stroke="None"><path d="
M 520.00 157.00 
C 520.00 172.00 520.00 187.00 520.00 202.00
C 534.79 203.80 551.40 203.38 566.22 202.22 C 568.04 187.29 566.48 171.33 567.00 156.00
C 551.42 156.65 535.17 154.68 520.00 157.00 Z"/>
</g>
<g fill="#5D617D" fill-opacity="1.00" stroke="None"><path d="
M 126.00 163.00 
C 124.40 162.57 123.54 164.37 122.00 164.00
C 120.23 166.03 116.52 164.53 114.00 165.00
C 120.82 168.46 129.07 163.21 133.00 157.00
C 130.27 158.35 128.76 161.58 126.00 163.00 Z"/>
</g>
<g fill="#F6D09D" fill-opacity="1.00" stroke="None"><path d="
M 351.00 193.00 
C 351.13 192.78 352.00 193.00 352.00 193.00
C 352.00 193.00 351.92 192.49 352.00 192.00
C 353.82 181.27 356.53 170.78 358.00 160.00
C 354.04 170.09 353.02 182.02 351.00 193.00 Z"/>
</g>
<g fill="#AEAFCB" fill-opacity="1.00" stroke="None"><path d="
M 114.00 165.00 
C 116.52 164.53 120.23 166.03 122.00 164.00
C 116.77 164.61 112.02 163.18 107.00 163.00
C 108.60 164.65 111.56 165.08 114.00 165.00 Z"/>
</g>
<g fill="#FBE9C5" fill-opacity="1.00" stroke="None"><path d="
M 407.00 182.00 
C 407.32 185.59 406.60 188.94 405.00 192.00
C 408.94 206.75 393.69 204.34 384.00 204.00 C 372.67 204.00 361.33 204.00 350.00 204.00
C 350.07 201.59 349.56 199.05 351.00 197.00
C 349.56 197.06 350.26 195.08 349.00 195.00
C 346.50 198.81 346.75 203.46 350.00 207.00
C 361.14 204.70 373.42 206.64 385.00 206.00 C 393.14 206.92 410.40 209.94 407.33 196.67 C 407.69 186.78 411.46 177.12 412.00 167.00
C 412.00 167.00 411.09 166.80 411.00 167.00
C 408.84 171.71 408.85 177.54 407.00 182.00 Z"/>
</g>
<g fill="#5F657C" fill-opacity="1.00" stroke="None"><path d="
M 67.00 193.00 
C 66.06 190.17 62.37 188.26 60.00 186.00
C 61.76 188.65 64.38 191.11 67.00 193.00 Z"/>
</g>
<g fill="#BBC2D8" fill-opacity="1.00" stroke="None"><path d="
M 289.00 202.00 
C 292.23 198.28 293.58 191.65 292.00 187.00
C 290.07 191.29 290.18 197.14 289.00 202.00 Z"/>
</g>
<g fill="#DAA560" fill-opacity="1.00" stroke="None"><path d="
M 352.00 193.00 
C 352.00 193.00 351.13 192.78 351.00 193.00
C 351.00 194.33 351.00 195.67 351.00 197.00
C 349.56 199.05 350.07 201.59 350.00 204.00
C 361.33 204.00 372.67 204.00 384.00 204.00 C 393.69 204.34 408.94 206.75 405.00 192.00
C 406.34 205.17 392.93 203.52 383.00 203.00 C 372.33 203.00 361.67 203.00 351.00 203.00
C 350.77 199.49 352.71 196.61 352.00 193.00 Z"/>
</g>
<g fill="#78838F" fill-opacity="1.00" stroke="None"><path d="
M 236.00 204.00 
C 236.00 202.33 236.00 200.67 236.00 199.00
C 234.35 199.68 234.61 203.26 236.00 204.00 Z"/>
</g>
<g fill="#B6BBD0" fill-opacity="1.00" stroke="None"><path d="
M 455.00 204.00 
C 464.68 206.33 476.50 204.33 487.00 205.00 C 494.88 203.33 511.69 208.54 514.00 202.00
C 507.23 206.61 494.19 202.71 485.00 204.00 C 475.00 204.00 465.00 204.00 455.00 204.00 Z"/>
</g>
<g fill="#989CB1" fill-opacity="1.00" stroke="None"><path d="
M 107.00 208.00 
C 101.78 205.44 94.66 206.27 89.00 204.00
C 93.50 207.78 101.02 207.24 107.00 208.00 Z"/>
</g>
</svg>