<?xml version="1.0" encoding="utf-8"?>
<svg height="2154" version="1.1" viewBox="0 0 8126 2154" width="8126" xmlns="http://www.w3.org/2000/svg" xmlns:xlink="http://www.w3.org/1999/xlink">
&lt;!-- All fills now inherit color via currentColor. Control color using CSS or parent text color. --&gt;

&lt;!-- Color Code Used:
#000000 - Black
You can replace this hex value globally to recolor the entire SVG. --&gt;

<path d="M2291.53 135.987C2311.58 135.176 2335.67 135.698 2355.96 135.643C2398.41 135.497 2440.85 135.641 2483.29 136.075C2483.93 141.555 2491.25 164.177 2493.17 170.996C2502.82 205.17 2512.68 239.282 2522.76 273.33C2556.47 386.883 2589.26 500.707 2621.12 614.791C2628.75 643.035 2643.55 684.158 2648.99 710.558C2633.56 711.485 2610.8 710.791 2594.74 710.81C2556.38 710.964 2518.03 710.723 2479.68 710.088C2475.87 687.816 2465.52 645.294 2457.91 623.889C2423.13 621.986 2192.82 626.518 2182.88 620.241C2189.2 608.238 2203.13 595.653 2211.31 584.622C2234.53 553.343 2261.98 524.428 2284.8 492.995C2296.89 491.691 2318.57 492.132 2331.5 492.096L2427.44 492.485C2415.66 466.413 2409.79 428.438 2400.86 400.983C2397.95 392.028 2396.67 382.351 2393.2 373.395C2389.61 357.787 2371.02 282.024 2365.95 272.698C2363.49 271.653 2364.53 271.848 2361.73 272.348C2353.55 281.118 2349.05 287.907 2342.34 297.761C2308.27 347.811 2274.32 398.865 2240.22 448.814L2103.53 645.894C2089.18 666.614 2071.82 689.167 2058.42 709.718C2040.35 712.388 1995.36 711.375 1976 710.928C1949.3 710.31 1917.78 710.765 1891.53 709.194C1897.33 697.636 1903.5 687.156 1910.64 676.402C1952.09 613.919 1996.61 553.712 2039.29 492.064C2097.08 408.261 2155.64 324.992 2214.96 242.267C2239.16 208.485 2264.95 166.81 2291.53 135.987Z" fill="currentColor" transform="matrix(1.98389 0 0 1.98343 0 1.90735e-06)"/>
<path d="M1479.37 136.081C1501.74 134.786 1531.97 135.345 1554.75 135.224L1734.53 135.955L1847.36 135.899C1908.98 135.836 1986.81 131.653 2030.45 183.656C2047.78 204.299 2054.05 222.264 2057.35 248.669C2059.9 264.268 2059.84 277.392 2057.32 292.955C2055.27 309.415 2052.15 325.516 2049.98 341.963C2041.42 406.849 2022.16 474.261 1968.41 516.314C1907.09 563.427 1813.88 556.534 1740.95 555.946L1617.57 555.817C1593.51 555.849 1567.42 555.396 1543.49 556.099C1535.39 588.014 1527.86 620.07 1520.9 652.251C1517.42 668.927 1513.69 692.943 1509.4 708.523C1498.35 712.841 1370.98 711.145 1352.32 710.094C1353.29 701.155 1356.25 688.894 1358.14 679.736C1362.04 660.67 1366.07 641.629 1370.22 622.614C1384.39 557.385 1401.45 486.726 1413.42 421.375C1453.98 419.014 1495.77 420.59 1536.43 420.683L1708.73 420.523C1753.15 420.789 1798.68 423.322 1842.63 417.143C1867.93 413.588 1887.41 382.737 1891.54 359.329C1895.8 340.497 1903.81 300.418 1887.28 285.982C1872.75 266.088 1729.09 272.667 1699.91 272.717L1451.21 272.608C1454.55 246.365 1463.24 211.439 1468.62 184.812C1471.49 170.557 1475.77 149.662 1479.37 136.081Z" fill="currentColor" transform="matrix(1.98389 0 0 1.98343 0 1.90735e-06)"/>
<path d="M3133.6 134.485C3162.72 133.82 3193.64 134.375 3222.88 134.553C3262.32 134.66 3301.77 135.3 3341.2 136.473C3339.97 145.513 3336.53 158.228 3334.52 167.488C3330.11 187.997 3325.87 208.543 3321.81 229.123C3319.18 242.328 3315.9 256.897 3314.57 270.198C3288.29 274.547 3233.76 272.079 3205.99 272.051L3015.3 272.558C2986.55 272.555 2956.09 270.103 2927.72 274.93C2916.35 276.865 2906.11 282.853 2897.79 290.663C2889.03 298.877 2881.1 311.632 2877.25 323.111C2866.69 354.628 2861.31 389.837 2854.81 422.731C2849.08 454.148 2840.57 484.913 2838.93 516.896C2837.48 544.92 2853.89 568.226 2882.57 571.813C2899.06 573.876 2914.98 573.254 2931.51 573.184L3000.72 573.012L3258.05 573.124C3254.91 585.248 3251.57 595.627 3248.91 608.181C3246.45 619.798 3243.88 634.055 3240.58 645.17C3239.46 653.34 3231.15 706.941 3229.5 708.951C3215.03 712.933 3155.51 710.742 3138.26 710.714L2992.43 710.539L2897.98 710.474C2860.75 710.465 2827.57 711.309 2791 704.099C2721.76 690.446 2677.1 645.264 2675.66 573.452C2674.45 513.656 2689.53 460.934 2700.65 402.622C2714.4 330.607 2724.8 251.459 2778.13 196.353C2843.09 128.285 2941.48 135.219 3027.48 135.842C3062.86 135.892 3098.24 135.44 3133.6 134.485Z" fill="currentColor" transform="matrix(1.98389 0 0 1.98343 0 1.90735e-06)"/>
<path d="M694.839 135.487C728.535 135.199 768.608 135.196 802.118 137.518C797.223 173.981 787.643 206.666 780.404 242.418C772.125 283.305 764.714 323.539 755.601 364.431C739.836 437.037 729.922 510.44 706.308 580.981C660.815 716.88 524.657 713.65 406.381 710.585C338.954 708.837 253.359 722.573 197.38 673.62C142.861 617.053 181.489 533.167 192.369 469.341C210.987 467.967 239.25 469.035 257.988 468.774C273.234 468.562 337.16 465.765 346.89 472.887C355.681 485.551 324.475 545.231 340.163 562.349C342.197 564.569 344.287 566.677 346.438 568.772C350.952 570.105 356.494 570.977 361.183 571.523C399.202 575.948 437.464 575.636 475.647 573.981C489.043 573.321 502.06 573.089 515.282 570.746C533.205 567.571 544.339 555.777 553.051 540.623C573.016 505.894 575.72 464.942 583.757 426.544C590.959 392.134 598.261 357.683 605.602 323.288L632.81 192.384C636.171 176.845 644.214 150.873 645.762 136.468C661.068 135.461 679.297 135.667 694.839 135.487Z" fill="currentColor" transform="matrix(1.98389 0 0 1.98343 0 1.90735e-06)"/>
<path d="M848.635 136.484C875.48 134.718 909.467 135.845 936.749 136.203C976.83 136.753 1016.92 136.981 1057 136.887C1180.6 136.62 1306.04 133.637 1429.44 136.882C1426.01 168.981 1415.07 204.455 1409.74 236.643C1407.78 248.484 1404.41 260.215 1403.86 272.327C1355.19 274.711 1301.7 271.589 1252.57 272.496C1231.9 272.877 1208.47 272.086 1188.03 274.124C1173.44 350.392 1155.44 425.935 1141.63 502.356C1139.59 513.628 1136.9 524.84 1135.38 536.17C1130.97 551.22 1125.66 584.691 1122.29 601.949C1115.37 638.18 1107.6 674.245 1098.99 710.114C1084.02 711.523 1061.99 710.782 1046.25 710.792C1010.45 710.8 974.644 710.536 938.846 709.997C942.288 688.577 950.103 659.413 954.612 637.458L987.699 475.277C994.723 442.189 1000.15 409.527 1006.5 376.426C1013.38 341.841 1020.7 307.343 1028.44 272.941C960.161 269.987 887.658 277.033 819.845 271.977C826.155 233.261 834.845 194.27 841.89 155.625C842.797 150.645 844.954 139.846 848.635 136.484Z" fill="currentColor" transform="matrix(1.98389 0 0 1.98343 0 1.90735e-06)"/>
<path d="M3835.23 135.477C3861.86 134.901 3893.27 135.506 3919.97 135.63C3937.52 135.711 3993.01 134.103 4006.59 137.563C4006.44 142.462 3983.09 162.962 3978.02 167.736L3925.77 215.943L3796.44 334.093C3765.45 362.257 3734.01 388.417 3705.81 419.681C3733.31 460.161 3763.98 498.618 3793.65 537.686L3920.1 706.267L3919.55 707.572C3910.35 714.484 3756.04 710.249 3733.74 708.983C3730.74 704.262 3721.53 693.426 3717.45 688.208L3680.22 640.409C3642.63 591.396 3606.12 541.474 3568.47 492.485C3558 478.866 3548.28 464.872 3538.61 450.678C3540.91 431.559 3548.86 379.936 3561.9 366.759C3573.66 354.869 3597.97 334.413 3611.19 323.066L3698.35 247.941L3785.22 172.149C3798.55 160.603 3812.29 148.603 3825.96 137.434C3828.05 135.732 3832.47 135.633 3835.23 135.477Z" fill="currentColor" transform="matrix(1.98389 0 0 1.98343 0 1.90735e-06)"/>
<path d="M3417.93 135.519C3465.22 134.075 3513.57 135.397 3560.96 136.319C3555.24 169.847 3546.8 207.026 3539.72 240.447L3501.74 420.991L3463.91 608.05L3449.95 681.604C3448.05 691.617 3447.01 700.326 3444.66 710.407C3439.39 710.788 3431.94 710.688 3426.5 710.755C3379.02 710.536 3331.89 713.203 3284.39 709.646C3293.71 675.854 3300.01 632.453 3307.02 597.331L3351.13 378.651C3360.19 333.163 3370.87 286.553 3380.37 241.076C3387.5 207 3396.52 170.602 3400.8 136.136C3405.92 135.62 3412.67 135.649 3417.93 135.519Z" fill="currentColor" transform="matrix(1.98389 0 0 1.98343 0 1.90735e-06)"/>
<path d="M107.108 868.176C126.343 867.306 150.397 867.983 170.011 867.995L288.32 868.062L647.3 868.11L990.367 868.075C1053.21 867.995 1130.27 865.98 1192.4 869.1C1190.95 880.303 1183.62 906.018 1179.7 916.864C1168.83 918.948 1148.49 917.944 1136.86 917.792L1083.48 917.542L856.155 917.422L353.978 917.425L194.429 917.681C163.366 917.742 126.772 918.728 96.2862 916.759C99.2448 903.462 103.118 880.124 107.108 868.176Z" fill="currentColor" transform="matrix(1.98389 0 0 1.98343 0 1.90735e-06)"/>
<path d="M3128.66 807.343C3137.48 806.109 3150.65 806.973 3159.86 807.36C3159.28 811.192 3158.27 815.44 3157.41 819.247C3147.5 863.433 3139.68 907.998 3128.37 951.876C3126.32 959.848 3124.05 968.28 3123.05 976.415C3114.21 977.01 3103.14 976.729 3094.13 976.736C3092.86 975.245 3090.1 971.787 3088.22 971.71C3080.09 971.376 3069.61 977.202 3061.23 978.292C3053.09 979.35 3048.91 978.906 3041.46 977.76C3009.73 970.458 3002.24 938.449 3009 910.558C3014.03 890.34 3026.81 872.912 3044.58 862.04C3066.49 848.802 3092.6 850.83 3116.46 856.734C3118.48 842.99 3120.88 818.464 3128.66 807.343ZM3079.67 945.95C3081.94 945.76 3084.32 945.4 3086.55 945.287C3096.99 944.759 3100.46 925.118 3102.5 916.935C3110.93 883.213 3101.86 882.559 3072.69 884.281C3052.89 891.85 3030.49 931.473 3057.78 943.701C3063.83 946.416 3072.96 946.058 3079.67 945.95Z" fill="currentColor" transform="matrix(1.98389 0 0 1.98343 0 1.90735e-06)"/>
<path d="M2638.15 851.432C2649.84 851.134 2658.91 854.706 2669.88 858.281C2671.61 862.133 2677.32 874.664 2677.1 881.215C2676.24 906.539 2666.92 950.543 2658.18 973.598C2656.7 977.501 2630.05 976.247 2623.67 976.108C2627 961.82 2643.7 897.366 2633.82 889.358C2592.57 855.934 2582.07 958.177 2578.12 975.511C2568.38 976.467 2549.24 975.909 2539.49 975.44C2544.37 959.751 2546.89 945.934 2551.31 930.754C2553.19 913.892 2566.57 887.238 2542.24 882.891C2536.48 881.863 2524.22 883.16 2520.71 887.581C2504.6 907.851 2498.72 950.967 2495.11 975.615C2484.19 976.342 2470.48 975.937 2459.35 975.9C2463.75 946.004 2477.3 882.133 2487.2 853.625C2502.31 852.354 2514.37 854.766 2528.65 854.649C2539.97 854.556 2549.77 850.236 2562.7 851.875C2574.15 853.327 2590.8 860.891 2600.82 860.31C2615.47 859.46 2620.85 852.518 2638.15 851.432Z" fill="currentColor" transform="matrix(1.98389 0 0 1.98343 0 1.90735e-06)"/>
<path d="M1380.87 811.463C1381.64 811.433 1382.4 811.409 1383.16 811.391C1403.66 810.926 1438.28 811.737 1453.49 827.121C1476.71 850.593 1463.52 889.526 1443.25 910.252C1415.74 938.381 1372.42 929.813 1337.03 929.778C1323.25 975.924 1339.74 977.541 1287.57 975.802C1288.54 969.255 1289.32 965.874 1291.06 959.522C1293.39 938.048 1301.89 916.435 1305.22 895.614C1340.03 892.31 1377.83 895.489 1410.07 892.324C1417.41 886.684 1432.55 867.284 1424.42 857.79C1414.06 845.681 1390.84 846.774 1376.09 846.829C1357.22 846.899 1337.36 848.251 1318.38 846.089C1319.79 835.114 1321.59 824.193 1323.78 813.347C1342.4 812.447 1362.01 812.241 1380.87 811.463Z" fill="currentColor" transform="matrix(1.98389 0 0 1.98343 0 1.90735e-06)"/>
<path d="M1858.97 851.478C1864.48 851.269 1870 851.364 1875.5 851.762C1904.25 853.918 1916.17 870.561 1912 898.564C1908.12 924.556 1900.51 949.789 1898.14 975.937C1888.63 977.274 1875.2 976.845 1865.65 976.437L1857.59 970.984C1837.36 971.806 1824.25 983.74 1802.41 977.582C1792.71 974.849 1786.27 969.91 1781.15 961.286C1778.13 953.78 1779.18 939.437 1782.25 932.403C1801.34 888.62 1840.45 910.4 1873.48 898.895C1876.25 897.929 1876.62 896.28 1877.45 894.037C1875 877.165 1817.62 883.436 1803.14 884.087C1808.6 848.549 1829.49 852.738 1858.97 851.478ZM1839.6 951.93C1851.62 950.482 1856.7 949.949 1867.75 944.857C1871.84 923.59 1867.29 925.297 1847.58 926.379C1837.84 927.193 1817.48 929.304 1816.78 942.376C1818.99 950.496 1832.57 951.822 1839.6 951.93Z" fill="currentColor" transform="matrix(1.98389 0 0 1.98343 0 1.90735e-06)"/>
<path d="M2930.85 852.352C2948.58 851.075 2971.82 848.873 2983.87 865.136C2997.24 883.191 2993.34 907.272 2990.88 927.992C2973.31 928.822 2910.84 922.997 2901.06 934.634C2898.8 941.949 2906.4 944.871 2911.98 946.513C2933.75 952.913 2956.02 941.747 2977.56 948.039C2976.79 957.205 2974.84 963.539 2972.23 972.243C2939.58 981.195 2868.31 988.737 2862.7 940.763C2860.36 920.682 2866.88 894.617 2879.08 878.334C2892.34 860.638 2910.15 855.238 2930.85 852.352ZM2942.01 904.413C2948.58 904.006 2954.17 904.065 2959.41 899.752C2966.36 885.392 2931.85 880.745 2922.71 881.307C2914.96 884.441 2904.06 890.956 2908.46 900.644C2912.38 909.293 2934.62 905.572 2942.01 904.413Z" fill="currentColor" transform="matrix(1.98389 0 0 1.98343 0 1.90735e-06)"/>
<path d="M2098.55 852.384C2106.17 851.615 2115.55 851.505 2123.13 852.626C2167.84 859.244 2162.89 896.035 2158.08 928.582C2143.25 929.283 2072.52 924.208 2065.5 935.045C2069.36 959.827 2136.51 943.163 2143.07 949.237C2141.14 954.826 2139.47 965.244 2138.31 971.438C2129.1 974.201 2119.46 975.788 2109.74 977.626C2079.47 983.346 2033.79 979.203 2028.41 941.04C2025.49 920.313 2034.36 895.311 2047 878.705C2060.68 860.733 2077 855.13 2098.55 852.384ZM2071.98 905.092L2107.88 905.02C2118.41 904.885 2133.37 899.9 2120.46 887.312C2113.9 880.922 2100.76 882.58 2091.99 883.365C2077.69 887.312 2077.09 891.585 2071.98 905.092Z" fill="currentColor" transform="matrix(1.98389 0 0 1.98343 0 1.90735e-06)"/>
<path d="M2275.77 814.432C2279.76 814.234 2307.06 812.626 2306.79 818.28C2305.03 854.873 2292.25 907.738 2279.93 941.602C2288.44 942.522 2302 942.017 2310.81 942.151C2333.52 942.496 2357.08 941.362 2379.72 942.416C2376.57 951.509 2373.97 972.24 2367.2 976.602C2334.27 977.118 2266.78 979.024 2236.23 974.75L2236.3 974.272C2239.29 956.364 2270.15 818.471 2275.77 814.432Z" fill="currentColor" transform="matrix(1.98389 0 0 1.98343 0 1.90735e-06)"/>
<path d="M1701.24 930.989C1715.47 914.07 1722.42 900.496 1733.45 881.675C1737.37 874.988 1744.83 862.66 1749.59 857.309L1749.98 856.872C1754.59 851.731 1783.08 853.831 1790.66 854.493C1773.39 879.345 1756.63 904.542 1740.37 930.068C1733.83 940.344 1717.9 966.95 1710.9 975.768C1699.07 976.284 1680.83 976.823 1669.08 975.74C1664.19 948.643 1659.85 921.53 1654.1 894.586C1652.79 888.438 1651.79 882.322 1651.07 876.074C1649.14 867.605 1648.17 862.807 1649.1 854.184C1658.81 854.177 1670.96 853.831 1680.48 854.333C1684.47 867.465 1688.07 880.711 1691.28 894.053C1694.05 905.56 1697.05 920.393 1701.24 930.989Z" fill="currentColor" transform="matrix(1.98389 0 0 1.98343 0 1.90735e-06)"/>
<path d="M2792.74 852.255C2801.2 817.018 2796.47 820.222 2833.6 821.195C2831.95 829.8 2827.8 844.375 2826.88 851.327C2837.63 851.612 2857.18 851.473 2867.12 852.656C2864.47 859.404 2858.13 879.787 2851.88 881.807C2843.92 884.381 2833.22 881.833 2824.23 882.831C2815.25 897.5 2811.02 919.622 2811.65 936.795C2813.57 939.333 2815.84 942.524 2817.84 944.906C2825.29 946.309 2830.82 946.627 2837.82 947.708C2837.61 956.533 2836.54 967.858 2834.35 976.386C2813.21 979.466 2780.8 981.854 2774.84 954.951C2770.62 936.091 2779.6 910.561 2784.21 891.722L2786.26 883.014L2765.84 881.983C2767.59 875.033 2767.56 870.573 2770.38 863.387C2774.85 851.67 2781.48 853.182 2792.74 852.255Z" fill="currentColor" transform="matrix(1.98389 0 0 1.98343 0 1.90735e-06)"/>
<path d="M1969.07 823.505C1979.83 822.128 1989.05 822.661 1999.79 823.517C1997.91 833.259 1996.16 843.023 1994.52 852.807C2006.47 852.863 2018.2 852.851 2030.14 853.47C2019.7 887.1 2026.28 882.3 1989.36 883.639C1984.31 897.678 1980.49 912.088 1979.19 926.973C1977.16 950.18 1990.23 947.513 2007.55 946.821C2005.26 954.841 2004.35 958.358 2003.41 966.596C2000.43 983.18 1981.08 978.843 1967.9 977.524C1917.11 972.441 1949.26 911.784 1952.8 882.98C1942.35 881.056 1934.67 880.409 1938.38 868.051C1939.85 863.154 1940.23 860.456 1942.72 855.561C1945.53 852.807 1954.23 852.801 1958.7 852.426C1961.38 844.896 1964.78 827.818 1969.07 823.505Z" fill="currentColor" transform="matrix(1.98389 0 0 1.98343 0 1.90735e-06)"/>
<path d="M1559.32 853.319C1581.37 853.182 1571.91 873.174 1566.84 886.308C1542.48 887.552 1539.56 885.095 1515.72 896.199C1509.5 913.583 1500.92 956.953 1497.79 976.067C1489.45 976.815 1477.37 976.516 1468.75 976.552C1464.87 976.247 1464.88 976.854 1462.18 974.843C1463.67 947.821 1476.09 909.755 1481.24 882.475C1482.86 873.859 1486.65 863.027 1488.82 854.027C1494.74 853.569 1508.48 853.091 1513.94 853.96L1514.66 854.078C1519.44 854.826 1520.19 855.445 1523.66 859.174L1523.98 859.522C1530.48 861.364 1551.33 855.09 1559.32 853.319Z" fill="currentColor" transform="matrix(1.98389 0 0 1.98343 0 1.90735e-06)"/>
<path d="M2720.83 853.674C2730.08 852.958 2746.65 852.934 2755.56 854.564C2754.99 861.767 2754.8 865.22 2752.88 872.23C2751.65 881.86 2728.91 969.415 2725.43 973.405C2718.04 976.939 2700.49 975.567 2691.63 975.369C2694.07 951.178 2711.96 875.645 2720.83 853.674Z" fill="currentColor" transform="matrix(1.98389 0 0 1.98343 0 1.90735e-06)"/>
<path d="M2419 854.13C2427.36 853.126 2448.28 853.991 2457.41 854.24C2455.69 860.641 2454.03 867.3 2452.12 873.623C2442.02 907.096 2436.76 941.306 2427.2 974.909C2422.53 977.697 2397.95 976.457 2391.14 976.324C2392.49 967.45 2395.83 955.421 2397.74 946.13C2403.91 915.259 2411 884.578 2419 854.13Z" fill="currentColor" transform="matrix(1.98389 0 0 1.98343 0 1.90735e-06)"/>
<path d="M1593.61 854.334C1605.05 853.831 1617.53 854.225 1628.99 854.572C1628.13 860.392 1626.98 866.537 1625.61 872.251C1617.44 906.233 1610.34 941.408 1601.78 975.23C1593.41 977.059 1576.99 976.315 1568.3 975.824C1568.64 961.699 1587.92 865.937 1593.61 854.334Z" fill="currentColor" transform="matrix(1.98389 0 0 1.98343 0 1.90735e-06)"/>
<path d="M2441.25 804.254C2452.11 802.956 2463.17 804.92 2464.55 817.878C2465.08 822.54 2463.66 827.214 2460.64 830.801C2456.55 835.649 2454.53 836.099 2448.66 836.518C2440.26 836.573 2431.7 836.422 2423.28 836.355L2424.55 815.792C2429.61 807.86 2432.19 806.666 2441.25 804.254Z" fill="currentColor" transform="matrix(1.98389 0 0 1.98343 0 1.90735e-06)"/>
<path d="M2735 804.322C2749.44 803.357 2771.04 803.986 2762.06 827.752C2760.2 832.666 2758.29 834.847 2753.44 836.546C2743.48 836.774 2733.5 836.756 2723.53 836.494C2724.1 830.005 2725.25 823.579 2726.96 817.294C2728.39 812.263 2730.26 806.986 2735 804.322Z" fill="currentColor" transform="matrix(1.98389 0 0 1.98343 0 1.90735e-06)"/>
<path d="M1612.48 804.318C1622.47 803.786 1628.56 804.724 1638.13 806.907C1636.65 818.181 1637.36 833.949 1624.07 836.345C1617.16 836.336 1600.25 838.021 1596.45 832.41C1595.13 824.195 1603.77 806.854 1612.48 804.318Z" fill="currentColor" transform="matrix(1.98389 0 0 1.98343 0 1.90735e-06)"/>
<path d="M2774.84 954.951C2773.53 958.423 2774.46 957.446 2771.56 958.896C2768.69 957.132 2767.83 955.166 2767.23 952.466C2764.72 941.306 2765.47 930.379 2772.88 921.454C2774.05 920.045 2774.08 904.1 2774.28 901.082C2774.52 897.409 2770.03 892.991 2773.4 889.102C2778.51 893.442 2777.7 893.246 2784.21 891.722C2779.6 910.561 2770.62 936.091 2774.84 954.951Z" fill="currentColor" fill-opacity="0.0078431377" transform="matrix(1.98389 0 0 1.98343 0 1.90735e-06)"/>
<path d="M1887.28 285.982C1903.81 300.418 1895.8 340.497 1891.54 359.329C1887.8 348.687 1894.27 299.166 1887.28 285.982Z" fill="currentColor" fill-opacity="0.015686275" transform="matrix(1.98389 0 0 1.98343 0 1.90735e-06)"/>
<path d="M2057.35 248.669L2057.78 246.384L2059.43 245.937C2066.44 251.06 2066.39 275.404 2064.87 283.447C2064.4 285.981 2062.55 289.231 2061.2 291.466C2059.62 292.323 2059.14 292.711 2057.32 292.955C2059.84 277.392 2059.9 264.268 2057.35 248.669Z" fill="currentColor" fill-opacity="0.011764706" transform="matrix(1.98389 0 0 1.98343 0 1.90735e-06)"/>
<path d="M2755.56 854.564C2756.71 853.771 2757.03 853.502 2758.26 852.862L2760.34 853.596C2761.85 856.766 2761.52 860.695 2761.56 864.29C2765.4 864.836 2766.08 863.375 2770.38 863.387C2767.56 870.573 2767.59 875.033 2765.84 881.983L2762.64 881.106C2760.77 877.243 2761.82 873.461 2761.99 868.555C2760.9 868.536 2757.02 871.37 2753.75 872.055L2752.88 872.23C2754.8 865.22 2754.99 861.767 2755.56 854.564Z" fill="currentColor" fill-opacity="0.011764706" transform="matrix(1.98389 0 0 1.98343 0 1.90735e-06)"/>
<path d="M1651.07 876.074L1647.63 875.144C1643.11 870.53 1640.2 859.617 1644.04 854.133C1647.17 853.327 1645.85 853.351 1649.1 854.184C1648.17 862.807 1649.14 867.605 1651.07 876.074Z" fill="currentColor" fill-opacity="0.011764706" transform="matrix(1.98389 0 0 1.98343 0 1.90735e-06)"/>
</svg>